<svg xmlns="http://www.w3.org/2000/svg" xmlns:xlink="http://www.w3.org/1999/xlink" width="500" zoomAndPan="magnify" viewBox="0 0 375 374.999991" height="500" preserveAspectRatio="xMidYMid meet" version="1.0"><defs><g/><linearGradient x1="0" gradientTransform="matrix(0.75, 0, 0, 0.75, 0.0000045, 0)" y1="0" x2="499.999979" gradientUnits="userSpaceOnUse" y2="499.999979" id="1345f47f8f"><stop stop-opacity="1" stop-color="rgb(7.499695%, 4.299927%, 23.098755%)" offset="0"/><stop stop-opacity="1" stop-color="rgb(7.925415%, 4.350281%, 23.925781%)" offset="0.00390625"/><stop stop-opacity="1" stop-color="rgb(8.352661%, 4.400635%, 24.754333%)" offset="0.0078125"/><stop stop-opacity="1" stop-color="rgb(8.778381%, 4.450989%, 25.58136%)" offset="0.0117187"/><stop stop-opacity="1" stop-color="rgb(9.205627%, 4.501343%, 26.408386%)" offset="0.015625"/><stop stop-opacity="1" stop-color="rgb(9.631348%, 4.551697%, 27.235413%)" offset="0.0195312"/><stop stop-opacity="1" stop-color="rgb(10.058594%, 4.602051%, 28.063965%)" offset="0.0234375"/><stop stop-opacity="1" stop-color="rgb(10.484314%, 4.652405%, 28.890991%)" offset="0.0273438"/><stop stop-opacity="1" stop-color="rgb(10.91156%, 4.702759%, 29.718018%)" offset="0.03125"/><stop stop-opacity="1" stop-color="rgb(11.33728%, 4.753113%, 30.545044%)" offset="0.0351562"/><stop stop-opacity="1" stop-color="rgb(11.764526%, 4.803467%, 31.37207%)" offset="0.0390625"/><stop stop-opacity="1" stop-color="rgb(12.190247%, 4.853821%, 32.199097%)" offset="0.0429687"/><stop stop-opacity="1" stop-color="rgb(12.617493%, 4.904175%, 33.027649%)" offset="0.046875"/><stop stop-opacity="1" stop-color="rgb(13.043213%, 4.954529%, 33.854675%)" offset="0.0507812"/><stop stop-opacity="1" stop-color="rgb(13.470459%, 5.004883%, 34.681702%)" offset="0.0546875"/><stop stop-opacity="1" stop-color="rgb(13.897705%, 5.055237%, 35.508728%)" offset="0.0585938"/><stop stop-opacity="1" stop-color="rgb(14.324951%, 5.105591%, 36.33728%)" offset="0.0625"/><stop stop-opacity="1" stop-color="rgb(14.750671%, 5.155945%, 37.164307%)" offset="0.0664062"/><stop stop-opacity="1" stop-color="rgb(15.177917%, 5.206299%, 37.991333%)" offset="0.0703125"/><stop stop-opacity="1" stop-color="rgb(15.603638%, 5.256653%, 38.818359%)" offset="0.0742187"/><stop stop-opacity="1" stop-color="rgb(16.030884%, 5.307007%, 39.645386%)" offset="0.078125"/><stop stop-opacity="1" stop-color="rgb(16.456604%, 5.357361%, 40.472412%)" offset="0.0820312"/><stop stop-opacity="1" stop-color="rgb(16.88385%, 5.407715%, 41.300964%)" offset="0.0859375"/><stop stop-opacity="1" stop-color="rgb(17.30957%, 5.458069%, 42.127991%)" offset="0.0898437"/><stop stop-opacity="1" stop-color="rgb(17.736816%, 5.508423%, 42.955017%)" offset="0.09375"/><stop stop-opacity="1" stop-color="rgb(18.162537%, 5.558777%, 43.782043%)" offset="0.0976562"/><stop stop-opacity="1" stop-color="rgb(18.589783%, 5.609131%, 44.610596%)" offset="0.101562"/><stop stop-opacity="1" stop-color="rgb(19.015503%, 5.659485%, 45.437622%)" offset="0.105469"/><stop stop-opacity="1" stop-color="rgb(19.442749%, 5.709839%, 46.264648%)" offset="0.109375"/><stop stop-opacity="1" stop-color="rgb(19.868469%, 5.760193%, 47.091675%)" offset="0.113281"/><stop stop-opacity="1" stop-color="rgb(20.295715%, 5.810547%, 47.920227%)" offset="0.117188"/><stop stop-opacity="1" stop-color="rgb(20.721436%, 5.860901%, 48.747253%)" offset="0.121094"/><stop stop-opacity="1" stop-color="rgb(21.148682%, 5.911255%, 49.57428%)" offset="0.125"/><stop stop-opacity="1" stop-color="rgb(21.574402%, 5.961609%, 50.401306%)" offset="0.128906"/><stop stop-opacity="1" stop-color="rgb(22.001648%, 6.011963%, 51.228333%)" offset="0.132812"/><stop stop-opacity="1" stop-color="rgb(22.428894%, 6.062317%, 52.055359%)" offset="0.136719"/><stop stop-opacity="1" stop-color="rgb(22.85614%, 6.112671%, 52.883911%)" offset="0.140625"/><stop stop-opacity="1" stop-color="rgb(23.28186%, 6.163025%, 53.710938%)" offset="0.144531"/><stop stop-opacity="1" stop-color="rgb(23.709106%, 6.213379%, 54.537964%)" offset="0.148437"/><stop stop-opacity="1" stop-color="rgb(24.134827%, 6.263733%, 55.36499%)" offset="0.152344"/><stop stop-opacity="1" stop-color="rgb(24.562073%, 6.315613%, 56.193542%)" offset="0.15625"/><stop stop-opacity="1" stop-color="rgb(24.987793%, 6.365967%, 57.020569%)" offset="0.160156"/><stop stop-opacity="1" stop-color="rgb(25.415039%, 6.416321%, 57.847595%)" offset="0.164062"/><stop stop-opacity="1" stop-color="rgb(25.840759%, 6.466675%, 58.674622%)" offset="0.167969"/><stop stop-opacity="1" stop-color="rgb(26.268005%, 6.517029%, 59.501648%)" offset="0.171875"/><stop stop-opacity="1" stop-color="rgb(26.693726%, 6.567383%, 60.328674%)" offset="0.175781"/><stop stop-opacity="1" stop-color="rgb(27.120972%, 6.617737%, 61.157227%)" offset="0.179687"/><stop stop-opacity="1" stop-color="rgb(27.546692%, 6.668091%, 61.984253%)" offset="0.183594"/><stop stop-opacity="1" stop-color="rgb(27.973938%, 6.718445%, 62.811279%)" offset="0.1875"/><stop stop-opacity="1" stop-color="rgb(28.399658%, 6.768799%, 63.638306%)" offset="0.191406"/><stop stop-opacity="1" stop-color="rgb(28.826904%, 6.819153%, 64.466858%)" offset="0.195312"/><stop stop-opacity="1" stop-color="rgb(29.252625%, 6.869507%, 65.293884%)" offset="0.199219"/><stop stop-opacity="1" stop-color="rgb(29.679871%, 6.919861%, 66.120911%)" offset="0.203125"/><stop stop-opacity="1" stop-color="rgb(30.107117%, 6.970215%, 66.947937%)" offset="0.207031"/><stop stop-opacity="1" stop-color="rgb(30.534363%, 7.020569%, 67.776489%)" offset="0.210938"/><stop stop-opacity="1" stop-color="rgb(30.960083%, 7.070923%, 68.603516%)" offset="0.214844"/><stop stop-opacity="1" stop-color="rgb(31.387329%, 7.121277%, 69.430542%)" offset="0.21875"/><stop stop-opacity="1" stop-color="rgb(31.813049%, 7.171631%, 70.257568%)" offset="0.222656"/><stop stop-opacity="1" stop-color="rgb(32.240295%, 7.221985%, 71.084595%)" offset="0.226562"/><stop stop-opacity="1" stop-color="rgb(32.666016%, 7.272339%, 71.911621%)" offset="0.230469"/><stop stop-opacity="1" stop-color="rgb(33.093262%, 7.322693%, 72.740173%)" offset="0.234375"/><stop stop-opacity="1" stop-color="rgb(33.518982%, 7.373047%, 73.5672%)" offset="0.238281"/><stop stop-opacity="1" stop-color="rgb(33.946228%, 7.423401%, 74.394226%)" offset="0.242188"/><stop stop-opacity="1" stop-color="rgb(34.371948%, 7.473755%, 75.221252%)" offset="0.246094"/><stop stop-opacity="1" stop-color="rgb(34.799194%, 7.524109%, 76.049805%)" offset="0.25"/><stop stop-opacity="1" stop-color="rgb(35.224915%, 7.574463%, 76.876831%)" offset="0.253906"/><stop stop-opacity="1" stop-color="rgb(35.652161%, 7.624817%, 77.703857%)" offset="0.257812"/><stop stop-opacity="1" stop-color="rgb(36.077881%, 7.675171%, 78.530884%)" offset="0.261719"/><stop stop-opacity="1" stop-color="rgb(36.505127%, 7.725525%, 79.35791%)" offset="0.265625"/><stop stop-opacity="1" stop-color="rgb(36.930847%, 7.775879%, 80.184937%)" offset="0.269531"/><stop stop-opacity="1" stop-color="rgb(37.358093%, 7.826233%, 81.013489%)" offset="0.273437"/><stop stop-opacity="1" stop-color="rgb(37.783813%, 7.876587%, 81.840515%)" offset="0.277344"/><stop stop-opacity="1" stop-color="rgb(38.21106%, 7.926941%, 82.667542%)" offset="0.28125"/><stop stop-opacity="1" stop-color="rgb(38.638306%, 7.977295%, 83.494568%)" offset="0.285156"/><stop stop-opacity="1" stop-color="rgb(39.065552%, 8.027649%, 84.32312%)" offset="0.289062"/><stop stop-opacity="1" stop-color="rgb(39.491272%, 8.078003%, 85.150146%)" offset="0.292969"/><stop stop-opacity="1" stop-color="rgb(39.918518%, 8.128357%, 85.977173%)" offset="0.296875"/><stop stop-opacity="1" stop-color="rgb(40.344238%, 8.178711%, 86.804199%)" offset="0.300781"/><stop stop-opacity="1" stop-color="rgb(40.771484%, 8.229065%, 87.632751%)" offset="0.304687"/><stop stop-opacity="1" stop-color="rgb(41.197205%, 8.279419%, 88.459778%)" offset="0.308594"/><stop stop-opacity="1" stop-color="rgb(41.624451%, 8.329773%, 89.286804%)" offset="0.3125"/><stop stop-opacity="1" stop-color="rgb(42.050171%, 8.380127%, 90.113831%)" offset="0.316406"/><stop stop-opacity="1" stop-color="rgb(42.477417%, 8.432007%, 90.940857%)" offset="0.320312"/><stop stop-opacity="1" stop-color="rgb(42.903137%, 8.482361%, 91.767883%)" offset="0.324219"/><stop stop-opacity="1" stop-color="rgb(43.330383%, 8.532715%, 92.596436%)" offset="0.328125"/><stop stop-opacity="1" stop-color="rgb(43.833923%, 8.679199%, 93.003845%)" offset="0.332031"/><stop stop-opacity="1" stop-color="rgb(44.337463%, 8.825684%, 93.411255%)" offset="0.335937"/><stop stop-opacity="1" stop-color="rgb(44.995117%, 9.165955%, 92.979431%)" offset="0.339844"/><stop stop-opacity="1" stop-color="rgb(45.652771%, 9.506226%, 92.549133%)" offset="0.34375"/><stop stop-opacity="1" stop-color="rgb(46.308899%, 9.844971%, 92.11731%)" offset="0.347656"/><stop stop-opacity="1" stop-color="rgb(46.966553%, 10.185242%, 91.687012%)" offset="0.351562"/><stop stop-opacity="1" stop-color="rgb(47.624207%, 10.523987%, 91.255188%)" offset="0.355469"/><stop stop-opacity="1" stop-color="rgb(48.28186%, 10.864258%, 90.82489%)" offset="0.359375"/><stop stop-opacity="1" stop-color="rgb(48.939514%, 11.204529%, 90.393066%)" offset="0.363281"/><stop stop-opacity="1" stop-color="rgb(49.597168%, 11.5448%, 89.961243%)" offset="0.367187"/><stop stop-opacity="1" stop-color="rgb(50.254822%, 11.883545%, 89.529419%)" offset="0.371094"/><stop stop-opacity="1" stop-color="rgb(50.912476%, 12.223816%, 89.099121%)" offset="0.375"/><stop stop-opacity="1" stop-color="rgb(51.568604%, 12.564087%, 88.667297%)" offset="0.378906"/><stop stop-opacity="1" stop-color="rgb(52.226257%, 12.904358%, 88.237%)" offset="0.382812"/><stop stop-opacity="1" stop-color="rgb(52.883911%, 13.243103%, 87.805176%)" offset="0.386719"/><stop stop-opacity="1" stop-color="rgb(53.541565%, 13.583374%, 87.374878%)" offset="0.390625"/><stop stop-opacity="1" stop-color="rgb(54.199219%, 13.923645%, 86.943054%)" offset="0.394531"/><stop stop-opacity="1" stop-color="rgb(54.856873%, 14.263916%, 86.51123%)" offset="0.398438"/><stop stop-opacity="1" stop-color="rgb(55.513%, 14.602661%, 86.079407%)" offset="0.402344"/><stop stop-opacity="1" stop-color="rgb(56.170654%, 14.942932%, 85.649109%)" offset="0.40625"/><stop stop-opacity="1" stop-color="rgb(56.828308%, 15.281677%, 85.217285%)" offset="0.410156"/><stop stop-opacity="1" stop-color="rgb(57.485962%, 15.621948%, 84.786987%)" offset="0.414062"/><stop stop-opacity="1" stop-color="rgb(58.143616%, 15.962219%, 84.355164%)" offset="0.417969"/><stop stop-opacity="1" stop-color="rgb(58.80127%, 16.30249%, 83.924866%)" offset="0.421875"/><stop stop-opacity="1" stop-color="rgb(59.457397%, 16.641235%, 83.493042%)" offset="0.425781"/><stop stop-opacity="1" stop-color="rgb(60.115051%, 16.981506%, 83.061218%)" offset="0.429688"/><stop stop-opacity="1" stop-color="rgb(60.772705%, 17.321777%, 82.629395%)" offset="0.433594"/><stop stop-opacity="1" stop-color="rgb(61.430359%, 17.662048%, 82.199097%)" offset="0.4375"/><stop stop-opacity="1" stop-color="rgb(62.088013%, 18.000793%, 81.767273%)" offset="0.441406"/><stop stop-opacity="1" stop-color="rgb(62.745667%, 18.341064%, 81.336975%)" offset="0.445312"/><stop stop-opacity="1" stop-color="rgb(63.401794%, 18.681335%, 80.905151%)" offset="0.449219"/><stop stop-opacity="1" stop-color="rgb(64.059448%, 19.021606%, 80.474854%)" offset="0.453125"/><stop stop-opacity="1" stop-color="rgb(64.717102%, 19.360352%, 80.04303%)" offset="0.457031"/><stop stop-opacity="1" stop-color="rgb(65.374756%, 19.700623%, 79.611206%)" offset="0.460938"/><stop stop-opacity="1" stop-color="rgb(66.03241%, 20.040894%, 79.179382%)" offset="0.464844"/><stop stop-opacity="1" stop-color="rgb(66.690063%, 20.381165%, 78.749084%)" offset="0.46875"/><stop stop-opacity="1" stop-color="rgb(67.347717%, 20.71991%, 78.317261%)" offset="0.472656"/><stop stop-opacity="1" stop-color="rgb(68.005371%, 21.060181%, 77.886963%)" offset="0.476562"/><stop stop-opacity="1" stop-color="rgb(68.661499%, 21.398926%, 77.455139%)" offset="0.480469"/><stop stop-opacity="1" stop-color="rgb(69.319153%, 21.739197%, 77.024841%)" offset="0.484375"/><stop stop-opacity="1" stop-color="rgb(69.976807%, 22.079468%, 76.593018%)" offset="0.488281"/><stop stop-opacity="1" stop-color="rgb(70.63446%, 22.419739%, 76.161194%)" offset="0.492188"/><stop stop-opacity="1" stop-color="rgb(71.292114%, 22.758484%, 75.72937%)" offset="0.496094"/><stop stop-opacity="1" stop-color="rgb(71.949768%, 23.098755%, 75.299072%)" offset="0.5"/><stop stop-opacity="1" stop-color="rgb(72.605896%, 23.439026%, 74.867249%)" offset="0.503906"/><stop stop-opacity="1" stop-color="rgb(73.26355%, 23.779297%, 74.436951%)" offset="0.507812"/><stop stop-opacity="1" stop-color="rgb(73.921204%, 24.118042%, 74.005127%)" offset="0.511719"/><stop stop-opacity="1" stop-color="rgb(74.578857%, 24.458313%, 73.574829%)" offset="0.515625"/><stop stop-opacity="1" stop-color="rgb(75.236511%, 24.798584%, 73.143005%)" offset="0.519531"/><stop stop-opacity="1" stop-color="rgb(75.894165%, 25.138855%, 72.711182%)" offset="0.523437"/><stop stop-opacity="1" stop-color="rgb(76.550293%, 25.4776%, 72.279358%)" offset="0.527344"/><stop stop-opacity="1" stop-color="rgb(77.207947%, 25.817871%, 71.84906%)" offset="0.53125"/><stop stop-opacity="1" stop-color="rgb(77.865601%, 26.158142%, 71.417236%)" offset="0.535156"/><stop stop-opacity="1" stop-color="rgb(78.523254%, 26.498413%, 70.986938%)" offset="0.539062"/><stop stop-opacity="1" stop-color="rgb(79.180908%, 26.837158%, 70.555115%)" offset="0.542969"/><stop stop-opacity="1" stop-color="rgb(79.838562%, 27.177429%, 70.124817%)" offset="0.546875"/><stop stop-opacity="1" stop-color="rgb(80.496216%, 27.516174%, 69.692993%)" offset="0.550781"/><stop stop-opacity="1" stop-color="rgb(81.15387%, 27.856445%, 69.261169%)" offset="0.554687"/><stop stop-opacity="1" stop-color="rgb(81.809998%, 28.196716%, 68.829346%)" offset="0.558594"/><stop stop-opacity="1" stop-color="rgb(82.467651%, 28.536987%, 68.399048%)" offset="0.5625"/><stop stop-opacity="1" stop-color="rgb(83.125305%, 28.875732%, 67.967224%)" offset="0.566406"/><stop stop-opacity="1" stop-color="rgb(83.782959%, 29.216003%, 67.536926%)" offset="0.570312"/><stop stop-opacity="1" stop-color="rgb(84.440613%, 29.556274%, 67.105103%)" offset="0.574219"/><stop stop-opacity="1" stop-color="rgb(85.098267%, 29.896545%, 66.674805%)" offset="0.578125"/><stop stop-opacity="1" stop-color="rgb(85.754395%, 30.235291%, 66.242981%)" offset="0.582031"/><stop stop-opacity="1" stop-color="rgb(86.412048%, 30.575562%, 65.811157%)" offset="0.585937"/><stop stop-opacity="1" stop-color="rgb(87.069702%, 30.915833%, 65.379333%)" offset="0.589844"/><stop stop-opacity="1" stop-color="rgb(87.727356%, 31.256104%, 64.949036%)" offset="0.59375"/><stop stop-opacity="1" stop-color="rgb(88.38501%, 31.594849%, 64.517212%)" offset="0.597656"/><stop stop-opacity="1" stop-color="rgb(89.042664%, 31.93512%, 64.086914%)" offset="0.601562"/><stop stop-opacity="1" stop-color="rgb(89.698792%, 32.273865%, 63.65509%)" offset="0.605469"/><stop stop-opacity="1" stop-color="rgb(90.356445%, 32.614136%, 63.224792%)" offset="0.609375"/><stop stop-opacity="1" stop-color="rgb(91.014099%, 32.954407%, 62.792969%)" offset="0.613281"/><stop stop-opacity="1" stop-color="rgb(91.671753%, 33.294678%, 62.361145%)" offset="0.617187"/><stop stop-opacity="1" stop-color="rgb(92.329407%, 33.633423%, 61.929321%)" offset="0.621094"/><stop stop-opacity="1" stop-color="rgb(92.987061%, 33.973694%, 61.499023%)" offset="0.625"/><stop stop-opacity="1" stop-color="rgb(93.643188%, 34.313965%, 61.0672%)" offset="0.628906"/><stop stop-opacity="1" stop-color="rgb(94.300842%, 34.654236%, 60.636902%)" offset="0.632812"/><stop stop-opacity="1" stop-color="rgb(94.958496%, 34.992981%, 60.205078%)" offset="0.636719"/><stop stop-opacity="1" stop-color="rgb(95.61615%, 35.333252%, 59.77478%)" offset="0.640625"/><stop stop-opacity="1" stop-color="rgb(96.273804%, 35.673523%, 59.342957%)" offset="0.644531"/><stop stop-opacity="1" stop-color="rgb(96.931458%, 36.013794%, 58.911133%)" offset="0.648437"/><stop stop-opacity="1" stop-color="rgb(97.589111%, 36.352539%, 58.479309%)" offset="0.652344"/><stop stop-opacity="1" stop-color="rgb(98.246765%, 36.69281%, 58.049011%)" offset="0.65625"/><stop stop-opacity="1" stop-color="rgb(98.902893%, 37.033081%, 57.617188%)" offset="0.660156"/><stop stop-opacity="1" stop-color="rgb(99.560547%, 37.373352%, 57.18689%)" offset="0.664062"/><stop stop-opacity="1" stop-color="rgb(99.729919%, 37.225342%, 56.84967%)" offset="0.667969"/><stop stop-opacity="1" stop-color="rgb(99.900818%, 37.078857%, 56.513977%)" offset="0.671875"/><stop stop-opacity="1" stop-color="rgb(99.82605%, 36.688232%, 56.22406%)" offset="0.675781"/><stop stop-opacity="1" stop-color="rgb(99.752808%, 36.299133%, 55.934143%)" offset="0.679687"/><stop stop-opacity="1" stop-color="rgb(99.67804%, 35.908508%, 55.644226%)" offset="0.683594"/><stop stop-opacity="1" stop-color="rgb(99.604797%, 35.517883%, 55.355835%)" offset="0.6875"/><stop stop-opacity="1" stop-color="rgb(99.531555%, 35.127258%, 55.065918%)" offset="0.691406"/><stop stop-opacity="1" stop-color="rgb(99.458313%, 34.738159%, 54.776001%)" offset="0.695312"/><stop stop-opacity="1" stop-color="rgb(99.383545%, 34.347534%, 54.486084%)" offset="0.699219"/><stop stop-opacity="1" stop-color="rgb(99.310303%, 33.956909%, 54.197693%)" offset="0.703125"/><stop stop-opacity="1" stop-color="rgb(99.235535%, 33.566284%, 53.907776%)" offset="0.707031"/><stop stop-opacity="1" stop-color="rgb(99.162292%, 33.177185%, 53.619385%)" offset="0.710937"/><stop stop-opacity="1" stop-color="rgb(99.087524%, 32.78656%, 53.329468%)" offset="0.714844"/><stop stop-opacity="1" stop-color="rgb(99.014282%, 32.395935%, 53.039551%)" offset="0.71875"/><stop stop-opacity="1" stop-color="rgb(98.94104%, 32.00531%, 52.749634%)" offset="0.722656"/><stop stop-opacity="1" stop-color="rgb(98.867798%, 31.616211%, 52.461243%)" offset="0.726562"/><stop stop-opacity="1" stop-color="rgb(98.79303%, 31.225586%, 52.171326%)" offset="0.730469"/><stop stop-opacity="1" stop-color="rgb(98.719788%, 30.834961%, 51.881409%)" offset="0.734375"/><stop stop-opacity="1" stop-color="rgb(98.64502%, 30.444336%, 51.591492%)" offset="0.738281"/><stop stop-opacity="1" stop-color="rgb(98.571777%, 30.055237%, 51.303101%)" offset="0.742187"/><stop stop-opacity="1" stop-color="rgb(98.497009%, 29.664612%, 51.013184%)" offset="0.746094"/><stop stop-opacity="1" stop-color="rgb(98.423767%, 29.273987%, 50.724792%)" offset="0.75"/><stop stop-opacity="1" stop-color="rgb(98.350525%, 28.883362%, 50.434875%)" offset="0.753906"/><stop stop-opacity="1" stop-color="rgb(98.277283%, 28.494263%, 50.144958%)" offset="0.757812"/><stop stop-opacity="1" stop-color="rgb(98.202515%, 28.103638%, 49.855042%)" offset="0.761719"/><stop stop-opacity="1" stop-color="rgb(98.129272%, 27.713013%, 49.56665%)" offset="0.765625"/><stop stop-opacity="1" stop-color="rgb(98.054504%, 27.322388%, 49.276733%)" offset="0.769531"/><stop stop-opacity="1" stop-color="rgb(97.981262%, 26.933289%, 48.986816%)" offset="0.773438"/><stop stop-opacity="1" stop-color="rgb(97.906494%, 26.542664%, 48.696899%)" offset="0.777344"/><stop stop-opacity="1" stop-color="rgb(97.833252%, 26.152039%, 48.408508%)" offset="0.78125"/><stop stop-opacity="1" stop-color="rgb(97.758484%, 25.761414%, 48.118591%)" offset="0.785156"/><stop stop-opacity="1" stop-color="rgb(97.685242%, 25.372314%, 47.8302%)" offset="0.789062"/><stop stop-opacity="1" stop-color="rgb(97.612%, 24.981689%, 47.540283%)" offset="0.792969"/><stop stop-opacity="1" stop-color="rgb(97.538757%, 24.591064%, 47.250366%)" offset="0.796875"/><stop stop-opacity="1" stop-color="rgb(97.463989%, 24.200439%, 46.960449%)" offset="0.800781"/><stop stop-opacity="1" stop-color="rgb(97.390747%, 23.81134%, 46.672058%)" offset="0.804688"/><stop stop-opacity="1" stop-color="rgb(97.315979%, 23.420715%, 46.382141%)" offset="0.808594"/><stop stop-opacity="1" stop-color="rgb(97.242737%, 23.03009%, 46.09375%)" offset="0.8125"/><stop stop-opacity="1" stop-color="rgb(97.167969%, 22.639465%, 45.803833%)" offset="0.816406"/><stop stop-opacity="1" stop-color="rgb(97.094727%, 22.250366%, 45.513916%)" offset="0.820312"/><stop stop-opacity="1" stop-color="rgb(97.021484%, 21.859741%, 45.223999%)" offset="0.824219"/><stop stop-opacity="1" stop-color="rgb(96.948242%, 21.469116%, 44.935608%)" offset="0.828125"/><stop stop-opacity="1" stop-color="rgb(96.873474%, 21.078491%, 44.645691%)" offset="0.832031"/><stop stop-opacity="1" stop-color="rgb(96.800232%, 20.689392%, 44.355774%)" offset="0.835938"/><stop stop-opacity="1" stop-color="rgb(96.725464%, 20.298767%, 44.065857%)" offset="0.839844"/><stop stop-opacity="1" stop-color="rgb(96.652222%, 19.908142%, 43.777466%)" offset="0.84375"/><stop stop-opacity="1" stop-color="rgb(96.577454%, 19.517517%, 43.487549%)" offset="0.847656"/><stop stop-opacity="1" stop-color="rgb(96.504211%, 19.128418%, 43.199158%)" offset="0.851562"/><stop stop-opacity="1" stop-color="rgb(96.430969%, 18.737793%, 42.909241%)" offset="0.855469"/><stop stop-opacity="1" stop-color="rgb(96.357727%, 18.347168%, 42.619324%)" offset="0.859375"/><stop stop-opacity="1" stop-color="rgb(96.282959%, 17.956543%, 42.329407%)" offset="0.863281"/><stop stop-opacity="1" stop-color="rgb(96.209717%, 17.567444%, 42.041016%)" offset="0.867188"/><stop stop-opacity="1" stop-color="rgb(96.134949%, 17.176819%, 41.751099%)" offset="0.871094"/><stop stop-opacity="1" stop-color="rgb(96.061707%, 16.786194%, 41.461182%)" offset="0.875"/><stop stop-opacity="1" stop-color="rgb(95.986938%, 16.395569%, 41.171265%)" offset="0.878906"/><stop stop-opacity="1" stop-color="rgb(95.913696%, 16.00647%, 40.882874%)" offset="0.882812"/><stop stop-opacity="1" stop-color="rgb(95.838928%, 15.615845%, 40.592957%)" offset="0.886719"/><stop stop-opacity="1" stop-color="rgb(95.765686%, 15.22522%, 40.304565%)" offset="0.890625"/><stop stop-opacity="1" stop-color="rgb(95.692444%, 14.834595%, 40.014648%)" offset="0.894531"/><stop stop-opacity="1" stop-color="rgb(95.619202%, 14.445496%, 39.724731%)" offset="0.898438"/><stop stop-opacity="1" stop-color="rgb(95.544434%, 14.054871%, 39.434814%)" offset="0.902344"/><stop stop-opacity="1" stop-color="rgb(95.471191%, 13.664246%, 39.146423%)" offset="0.90625"/><stop stop-opacity="1" stop-color="rgb(95.396423%, 13.273621%, 38.856506%)" offset="0.910156"/><stop stop-opacity="1" stop-color="rgb(95.323181%, 12.884521%, 38.566589%)" offset="0.914062"/><stop stop-opacity="1" stop-color="rgb(95.248413%, 12.493896%, 38.276672%)" offset="0.917969"/><stop stop-opacity="1" stop-color="rgb(95.175171%, 12.103271%, 37.988281%)" offset="0.921875"/><stop stop-opacity="1" stop-color="rgb(95.101929%, 11.712646%, 37.698364%)" offset="0.925781"/><stop stop-opacity="1" stop-color="rgb(95.028687%, 11.323547%, 37.409973%)" offset="0.929688"/><stop stop-opacity="1" stop-color="rgb(94.953918%, 10.932922%, 37.120056%)" offset="0.933594"/><stop stop-opacity="1" stop-color="rgb(94.880676%, 10.542297%, 36.830139%)" offset="0.9375"/><stop stop-opacity="1" stop-color="rgb(94.805908%, 10.151672%, 36.540222%)" offset="0.941406"/><stop stop-opacity="1" stop-color="rgb(94.732666%, 9.762573%, 36.251831%)" offset="0.945312"/><stop stop-opacity="1" stop-color="rgb(94.657898%, 9.371948%, 35.961914%)" offset="0.949219"/><stop stop-opacity="1" stop-color="rgb(94.584656%, 8.981323%, 35.671997%)" offset="0.953125"/><stop stop-opacity="1" stop-color="rgb(94.511414%, 8.590698%, 35.38208%)" offset="0.957031"/><stop stop-opacity="1" stop-color="rgb(94.438171%, 8.201599%, 35.093689%)" offset="0.960938"/><stop stop-opacity="1" stop-color="rgb(94.363403%, 7.810974%, 34.803772%)" offset="0.964844"/><stop stop-opacity="1" stop-color="rgb(94.290161%, 7.421875%, 34.515381%)" offset="0.96875"/><stop stop-opacity="1" stop-color="rgb(94.215393%, 7.03125%, 34.225464%)" offset="0.972656"/><stop stop-opacity="1" stop-color="rgb(94.142151%, 6.640625%, 33.935547%)" offset="0.976562"/><stop stop-opacity="1" stop-color="rgb(94.067383%, 6.25%, 33.64563%)" offset="0.980469"/><stop stop-opacity="1" stop-color="rgb(93.994141%, 5.860901%, 33.357239%)" offset="0.984375"/><stop stop-opacity="1" stop-color="rgb(93.920898%, 5.470276%, 33.067322%)" offset="0.988281"/><stop stop-opacity="1" stop-color="rgb(93.847656%, 5.079651%, 32.777405%)" offset="0.992188"/><stop stop-opacity="1" stop-color="rgb(93.772888%, 4.689026%, 32.487488%)" offset="0.996094"/><stop stop-opacity="1" stop-color="rgb(93.699646%, 4.299927%, 32.199097%)" offset="1"/></linearGradient><clipPath id="319ecb1c57"><path d="M 217.269531 112.097656 L 281.019531 112.097656 L 281.019531 175.847656 L 217.269531 175.847656 Z M 217.269531 112.097656 " clip-rule="nonzero"/></clipPath><clipPath id="a02b3b9366"><path d="M 260.089844 153.652344 L 290 153.652344 L 290 183.652344 L 260.089844 183.652344 Z M 260.089844 153.652344 " clip-rule="nonzero"/></clipPath></defs><rect x="-37.5" width="450" fill="#ffffff" y="-37.499999" height="449.999989" fill-opacity="1"/><rect x="-37.5" fill="url(#1345f47f8f)" width="450" y="-37.499999" height="449.999989"/><g clip-path="url(#319ecb1c57)"><path fill="#000000" d="M 281.015625 143.972656 C 257.109375 148.371094 253.542969 151.9375 249.140625 175.84375 C 244.742188 151.9375 241.175781 148.371094 217.269531 143.972656 C 241.175781 139.570312 244.742188 136.003906 249.140625 112.097656 C 253.542969 136.003906 257.109375 139.570312 281.015625 143.972656 Z M 281.015625 143.972656 " fill-opacity="1" fill-rule="nonzero"/></g><g clip-path="url(#a02b3b9366)"><path fill="#38b6ff" d="M 289.980469 168.597656 C 278.773438 170.660156 277.097656 172.335938 275.035156 183.542969 C 272.972656 172.335938 271.300781 170.660156 260.089844 168.597656 C 271.300781 166.535156 272.972656 164.863281 275.035156 153.652344 C 277.097656 164.863281 278.773438 166.535156 289.980469 168.597656 Z M 289.980469 168.597656 " fill-opacity="1" fill-rule="nonzero"/></g><g fill="#000000" fill-opacity="1"><g transform="translate(49.331749, 214.930051)"><g><path d="M 39.15625 -32.359375 L 39.15625 0 L 29.453125 0 L 29.453125 -19.890625 L 20.90625 -8.828125 L 12.375 -19.9375 L 12.375 0 L 3.15625 0 L 3.15625 -32.359375 L 12.953125 -32.359375 L 21.203125 -21.4375 L 29.640625 -32.359375 Z M 39.15625 -32.359375 "/></g></g></g><g fill="#000000" fill-opacity="1"><g transform="translate(89.010888, 214.930051)"><g><path d="M 21.828125 0 L 16.25 -10.328125 L 12.859375 -10.328125 L 12.859375 0 L 3.15625 0 L 3.15625 -32.359375 L 19.984375 -32.359375 C 23.929688 -32.359375 27.007812 -31.46875 29.21875 -29.6875 C 31.4375 -27.90625 32.546875 -25.253906 32.546875 -21.734375 C 32.546875 -19.765625 32.003906 -17.875 30.921875 -16.0625 C 29.835938 -14.25 28.296875 -12.988281 26.296875 -12.28125 L 34.34375 0 Z M 18.78125 -17.171875 C 19.71875 -17.171875 20.484375 -17.492188 21.078125 -18.140625 C 21.679688 -18.785156 21.984375 -19.835938 21.984375 -21.296875 C 21.984375 -22.523438 21.675781 -23.460938 21.0625 -24.109375 C 20.445312 -24.753906 19.6875 -25.078125 18.78125 -25.078125 L 12.859375 -25.078125 L 12.859375 -17.171875 Z M 18.78125 -17.171875 "/></g></g></g><g fill="#000000" fill-opacity="1"><g transform="translate(122.432516, 214.930051)"><g><path d="M 22.21875 0 L 16.34375 -8.78125 L 11.453125 0 L 1.109375 0 L 11.5 -15.96875 L 0.484375 -32.359375 L 12.609375 -32.359375 L 18.625 -23.390625 L 23.4375 -32.359375 L 33.953125 -32.359375 L 23.578125 -16.015625 L 34.34375 0 Z M 22.21875 0 "/></g></g></g><g fill="#000000" fill-opacity="1"><g transform="translate(154.641455, 214.930051)"><g><path d="M 3.828125 -17.859375 L 18.625 -17.859375 L 18.625 -12.171875 L 3.828125 -12.171875 Z M 3.828125 -17.859375 "/></g></g></g><g fill="#000000" fill-opacity="1"><g transform="translate(174.529417, 214.930051)"><g><path d="M 17.8125 0.734375 C 12.4375 0.734375 8.363281 -0.640625 5.59375 -3.390625 C 2.832031 -6.140625 1.453125 -10.394531 1.453125 -16.15625 C 1.453125 -21.8125 2.796875 -26.0625 5.484375 -28.90625 C 8.171875 -31.757812 12.28125 -33.1875 17.8125 -33.1875 C 21.101562 -33.1875 24.59375 -32.394531 28.28125 -30.8125 L 28.28125 -22.515625 C 25.050781 -24.773438 22.007812 -25.90625 19.15625 -25.90625 C 16.664062 -25.90625 14.765625 -25.175781 13.453125 -23.71875 C 12.148438 -22.269531 11.5 -19.734375 11.5 -16.109375 C 11.5 -12.546875 12.171875 -10.0625 13.515625 -8.65625 C 14.859375 -7.25 16.90625 -6.546875 19.65625 -6.546875 C 20.75 -6.546875 22.039062 -6.8125 23.53125 -7.34375 C 25.019531 -7.882812 26.601562 -8.71875 28.28125 -9.84375 L 28.28125 -1.546875 C 27.050781 -0.867188 25.429688 -0.320312 23.421875 0.09375 C 21.421875 0.519531 19.550781 0.734375 17.8125 0.734375 Z M 17.8125 0.734375 "/></g></g></g><g fill="#000000" fill-opacity="1"><g transform="translate(202.615198, 214.930051)"><g><path d="M 3.15625 -32.359375 L 12.90625 -32.359375 L 12.90625 -7.328125 L 25.859375 -7.328125 L 25.859375 0 L 3.15625 0 Z M 3.15625 -32.359375 "/></g></g></g><g fill="#000000" fill-opacity="1"><g transform="translate(227.54797, 214.930051)"><g><path d="M 18.046875 0.734375 C 13.035156 0.734375 9.054688 -0.671875 6.109375 -3.484375 C 3.171875 -6.304688 1.703125 -10.53125 1.703125 -16.15625 C 1.703125 -21.65625 3.128906 -25.851562 5.984375 -28.75 C 8.847656 -31.644531 12.867188 -33.09375 18.046875 -33.09375 C 23.054688 -33.09375 27.03125 -31.679688 29.96875 -28.859375 C 32.914062 -26.046875 34.390625 -21.828125 34.390625 -16.203125 C 34.390625 -10.703125 32.957031 -6.503906 30.09375 -3.609375 C 27.238281 -0.710938 23.222656 0.734375 18.046875 0.734375 Z M 18.046875 -7.03125 C 20.085938 -7.03125 21.648438 -7.734375 22.734375 -9.140625 C 23.816406 -10.546875 24.359375 -12.914062 24.359375 -16.25 C 24.359375 -19.550781 23.816406 -21.890625 22.734375 -23.265625 C 21.648438 -24.640625 20.085938 -25.328125 18.046875 -25.328125 C 16.003906 -25.328125 14.441406 -24.625 13.359375 -23.21875 C 12.273438 -21.8125 11.734375 -19.441406 11.734375 -16.109375 C 11.734375 -12.804688 12.273438 -10.46875 13.359375 -9.09375 C 14.441406 -7.71875 16.003906 -7.03125 18.046875 -7.03125 Z M 18.046875 -7.03125 "/></g></g></g><g fill="#000000" fill-opacity="1"><g transform="translate(261.018111, 214.930051)"><g><path d="M 18.96875 1.21875 C 13.53125 1.21875 9.535156 0.207031 6.984375 -1.8125 C 4.429688 -3.832031 3.15625 -7.09375 3.15625 -11.59375 L 3.15625 -32.359375 L 13.34375 -32.359375 L 13.34375 -12.171875 C 13.34375 -10.078125 13.738281 -8.535156 14.53125 -7.546875 C 15.320312 -6.554688 16.625 -6.0625 18.4375 -6.0625 C 20.050781 -6.0625 21.300781 -6.578125 22.1875 -7.609375 C 23.082031 -8.648438 23.53125 -10.171875 23.53125 -12.171875 L 23.53125 -32.359375 L 32.75 -32.359375 L 32.75 -11.59375 C 32.75 -7.257812 31.503906 -4.039062 29.015625 -1.9375 C 26.523438 0.164062 23.175781 1.21875 18.96875 1.21875 Z M 18.96875 1.21875 "/></g></g></g><g fill="#000000" fill-opacity="1"><g transform="translate(294.29423, 214.930051)"><g><path d="M 3.15625 -32.359375 L 17.375 -32.359375 C 23 -32.359375 27.128906 -31.003906 29.765625 -28.296875 C 32.398438 -25.597656 33.71875 -21.550781 33.71875 -16.15625 C 33.71875 -10.789062 32.390625 -6.753906 29.734375 -4.046875 C 27.085938 -1.347656 22.96875 0 17.375 0 L 3.15625 0 Z M 16.15625 -7.28125 C 18.613281 -7.28125 20.492188 -8.003906 21.796875 -9.453125 C 23.109375 -10.910156 23.765625 -13.144531 23.765625 -16.15625 C 23.765625 -22.101562 21.226562 -25.078125 16.15625 -25.078125 L 12.859375 -25.078125 L 12.859375 -7.28125 Z M 16.15625 -7.28125 "/></g></g></g><g fill="#004aad" fill-opacity="1"><g transform="translate(65.401435, 250.612229)"><g><path d="M 2.0625 -16.171875 L 3.8125 -16.171875 L 3.8125 -8.90625 L 12.421875 -8.90625 L 12.421875 -16.171875 L 14.15625 -16.171875 L 14.15625 0 L 12.421875 0 L 12.421875 -7.25 L 3.8125 -7.25 L 3.8125 0 L 2.0625 0 Z M 2.0625 -16.171875 "/></g></g></g><g fill="#004aad" fill-opacity="1"><g transform="translate(80.312659, 250.612229)"><g><path d="M 8.703125 0.25 C 6.304688 0.25 4.5 -0.445312 3.28125 -1.84375 C 2.0625 -3.25 1.453125 -5.328125 1.453125 -8.078125 C 1.453125 -10.828125 2.0625 -12.898438 3.28125 -14.296875 C 4.5 -15.691406 6.304688 -16.390625 8.703125 -16.390625 C 11.109375 -16.390625 12.921875 -15.691406 14.140625 -14.296875 C 15.367188 -12.898438 15.984375 -10.828125 15.984375 -8.078125 C 15.984375 -5.328125 15.367188 -3.25 14.140625 -1.84375 C 12.921875 -0.445312 11.109375 0.25 8.703125 0.25 Z M 8.703125 -1.40625 C 10.609375 -1.40625 12 -1.9375 12.875 -3 C 13.75 -4.070312 14.1875 -5.765625 14.1875 -8.078125 C 14.1875 -10.367188 13.75 -12.050781 12.875 -13.125 C 12 -14.207031 10.609375 -14.75 8.703125 -14.75 C 6.816406 -14.75 5.4375 -14.207031 4.5625 -13.125 C 3.6875 -12.050781 3.25 -10.367188 3.25 -8.078125 C 3.25 -5.765625 3.6875 -4.070312 4.5625 -3 C 5.4375 -1.9375 6.816406 -1.40625 8.703125 -1.40625 Z M 8.703125 -1.40625 "/></g></g></g><g fill="#004aad" fill-opacity="1"><g transform="translate(96.436221, 250.612229)"><g><path d="M 6.640625 0.25 C 5.523438 0.25 4.632812 0.144531 3.96875 -0.0625 C 3.3125 -0.28125 2.515625 -0.640625 1.578125 -1.140625 L 1.578125 -3.03125 C 2.160156 -2.539062 2.890625 -2.140625 3.765625 -1.828125 C 4.648438 -1.515625 5.632812 -1.359375 6.71875 -1.359375 C 7.894531 -1.359375 8.773438 -1.609375 9.359375 -2.109375 C 9.941406 -2.609375 10.234375 -3.285156 10.234375 -4.140625 C 10.234375 -4.773438 10.0625 -5.296875 9.71875 -5.703125 C 9.382812 -6.117188 8.984375 -6.441406 8.515625 -6.671875 C 8.046875 -6.910156 7.34375 -7.207031 6.40625 -7.5625 C 5.40625 -7.90625 4.609375 -8.226562 4.015625 -8.53125 C 3.421875 -8.84375 2.914062 -9.296875 2.5 -9.890625 C 2.082031 -10.492188 1.875 -11.285156 1.875 -12.265625 C 1.875 -12.929688 2.035156 -13.578125 2.359375 -14.203125 C 2.691406 -14.835938 3.222656 -15.363281 3.953125 -15.78125 C 4.691406 -16.207031 5.644531 -16.421875 6.8125 -16.421875 C 7.664062 -16.421875 8.363281 -16.335938 8.90625 -16.171875 C 9.445312 -16.015625 10.164062 -15.71875 11.0625 -15.28125 L 11.0625 -13.484375 C 10.945312 -13.546875 10.640625 -13.71875 10.140625 -14 C 9.648438 -14.28125 9.140625 -14.484375 8.609375 -14.609375 C 8.085938 -14.742188 7.519531 -14.8125 6.90625 -14.8125 C 5.789062 -14.8125 4.96875 -14.582031 4.4375 -14.125 C 3.90625 -13.664062 3.640625 -13.085938 3.640625 -12.390625 C 3.640625 -11.765625 3.78125 -11.253906 4.0625 -10.859375 C 4.34375 -10.472656 4.722656 -10.15625 5.203125 -9.90625 C 5.679688 -9.664062 6.351562 -9.40625 7.21875 -9.125 C 8.226562 -8.78125 9.050781 -8.441406 9.6875 -8.109375 C 10.320312 -7.773438 10.863281 -7.300781 11.3125 -6.6875 C 11.769531 -6.070312 12 -5.289062 12 -4.34375 C 12 -3.0625 11.570312 -1.972656 10.71875 -1.078125 C 9.875 -0.191406 8.515625 0.25 6.640625 0.25 Z M 6.640625 0.25 "/></g></g></g><g fill="#004aad" fill-opacity="1"><g transform="translate(108.583311, 250.612229)"><g><path d="M 6.203125 -14.53125 L 0.484375 -14.53125 L 0.484375 -16.171875 L 13.65625 -16.171875 L 13.65625 -14.53125 L 7.953125 -14.53125 L 7.953125 0 L 6.203125 0 Z M 6.203125 -14.53125 "/></g></g></g><g fill="#004aad" fill-opacity="1"><g transform="translate(121.409321, 250.612229)"><g/></g></g><g fill="#004aad" fill-opacity="1"><g transform="translate(127.131027, 250.612229)"><g><path d="M 11.296875 -5.046875 L 4.3125 -5.046875 L 2.375 0 L 0.484375 0 L 6.9375 -16.171875 L 8.6875 -16.171875 L 15.109375 0 L 13.234375 0 Z M 10.640625 -6.71875 L 7.8125 -14.109375 L 4.96875 -6.71875 Z M 10.640625 -6.71875 "/></g></g></g><g fill="#004aad" fill-opacity="1"><g transform="translate(141.411841, 250.612229)"><g><path d="M 15.453125 -16.171875 L 15.453125 0 L 13.484375 0 L 3.8125 -13.625 L 3.8125 0 L 2.0625 0 L 2.0625 -16.171875 L 4.046875 -16.171875 L 13.703125 -2.546875 L 13.703125 -16.171875 Z M 15.453125 -16.171875 "/></g></g></g><g fill="#004aad" fill-opacity="1"><g transform="translate(157.608149, 250.612229)"><g><path d="M 8.078125 -7.421875 L 8.078125 0 L 6.328125 0 L 6.328125 -7.421875 L 0.296875 -16.171875 L 2.40625 -16.171875 L 7.171875 -9.09375 L 11.984375 -16.171875 L 14.09375 -16.171875 Z M 8.078125 -7.421875 "/></g></g></g><g fill="#004aad" fill-opacity="1"><g transform="translate(170.797862, 250.612229)"><g><path d="M 23.0625 -16.171875 L 17.84375 0 L 16.078125 0 L 11.828125 -13.40625 L 7.59375 0 L 5.796875 0 L 0.609375 -16.171875 L 2.453125 -16.171875 L 6.8125 -2.375 L 10.96875 -16.171875 L 12.703125 -16.171875 L 16.921875 -2.375 L 21.21875 -16.171875 Z M 23.0625 -16.171875 "/></g></g></g><g fill="#004aad" fill-opacity="1"><g transform="translate(193.152835, 250.612229)"><g><path d="M 2.0625 -16.171875 L 3.8125 -16.171875 L 3.8125 -8.90625 L 12.421875 -8.90625 L 12.421875 -16.171875 L 14.15625 -16.171875 L 14.15625 0 L 12.421875 0 L 12.421875 -7.25 L 3.8125 -7.25 L 3.8125 0 L 2.0625 0 Z M 2.0625 -16.171875 "/></g></g></g><g fill="#004aad" fill-opacity="1"><g transform="translate(208.064053, 250.612229)"><g><path d="M 2.0625 -16.171875 L 12.265625 -16.171875 L 12.265625 -14.53125 L 3.8125 -14.53125 L 3.8125 -8.953125 L 11.25 -8.953125 L 11.25 -7.25 L 3.8125 -7.25 L 3.8125 -1.65625 L 12.265625 -1.65625 L 12.265625 0 L 2.0625 0 Z M 2.0625 -16.171875 "/></g></g></g><g fill="#004aad" fill-opacity="1"><g transform="translate(220.841564, 250.612229)"><g><path d="M 12.15625 0 L 7.9375 -6.515625 L 3.8125 -6.515625 L 3.8125 0 L 2.0625 0 L 2.0625 -16.171875 L 8.703125 -16.171875 C 10.273438 -16.171875 11.460938 -15.773438 12.265625 -14.984375 C 13.078125 -14.191406 13.484375 -13.019531 13.484375 -11.46875 C 13.484375 -10.226562 13.148438 -9.175781 12.484375 -8.3125 C 11.828125 -7.457031 10.941406 -6.925781 9.828125 -6.71875 L 14.203125 0 Z M 3.8125 -8.171875 L 7.90625 -8.171875 C 9.226562 -8.171875 10.195312 -8.4375 10.8125 -8.96875 C 11.425781 -9.5 11.734375 -10.289062 11.734375 -11.34375 C 11.734375 -12.382812 11.488281 -13.175781 11 -13.71875 C 10.519531 -14.257812 9.691406 -14.53125 8.515625 -14.53125 L 3.8125 -14.53125 Z M 3.8125 -8.171875 "/></g></g></g><g fill="#004aad" fill-opacity="1"><g transform="translate(234.831414, 250.612229)"><g><path d="M 2.0625 -16.171875 L 12.265625 -16.171875 L 12.265625 -14.53125 L 3.8125 -14.53125 L 3.8125 -8.953125 L 11.25 -8.953125 L 11.25 -7.25 L 3.8125 -7.25 L 3.8125 -1.65625 L 12.265625 -1.65625 L 12.265625 0 L 2.0625 0 Z M 2.0625 -16.171875 "/></g></g></g></svg>